<svg width="26" height="26" viewBox="0 0 26 26" fill="none" xmlns="http://www.w3.org/2000/svg">
<g id="groups">
<mask id="mask0_1_1192" style="mask-type:alpha" maskUnits="userSpaceOnUse" x="0" y="0" width="26" height="26">
<rect id="Bounding box" y="0.370605" width="25.1502" height="25.1502" fill="#D9D9D9"/>
</mask>
<g mask="url(#mask0_1_1192)">
<path id="groups_2" d="M1.04793 19.2355C0.751014 19.2355 0.502131 19.1351 0.301279 18.9342C0.100426 18.7334 0 18.4845 0 18.1876V17.585C0 16.834 0.38424 16.2227 1.15272 15.7512C1.9212 15.2796 2.93419 15.0438 4.19171 15.0438C4.41876 15.0438 4.63707 15.0482 4.84666 15.0569C5.05624 15.0656 5.2571 15.0875 5.44922 15.1224C5.2047 15.4892 5.02131 15.8734 4.89906 16.2751C4.7768 16.6768 4.71567 17.096 4.71567 17.5326V19.2355H1.04793ZM7.33548 19.2355C7.03857 19.2355 6.78969 19.1351 6.58884 18.9342C6.38798 18.7334 6.28756 18.4845 6.28756 18.1876V17.5326C6.28756 16.9737 6.44038 16.4629 6.74603 16C7.05167 15.5372 7.48394 15.1311 8.04283 14.7818C8.60173 14.4325 9.26978 14.1705 10.047 13.9959C10.8242 13.8212 11.6669 13.7339 12.5751 13.7339C13.5008 13.7339 14.3522 13.8212 15.1294 13.9959C15.9066 14.1705 16.5747 14.4325 17.1336 14.7818C17.6925 15.1311 18.1204 15.5372 18.4173 16C18.7142 16.4629 18.8627 16.9737 18.8627 17.5326V18.1876C18.8627 18.4845 18.7622 18.7334 18.5614 18.9342C18.3605 19.1351 18.1117 19.2355 17.8147 19.2355H7.33548ZM20.4346 19.2355V17.5326C20.4346 17.0785 20.3778 16.6506 20.2643 16.2489C20.1507 15.8472 19.9805 15.4717 19.7534 15.1224C19.9455 15.0875 20.142 15.0656 20.3429 15.0569C20.5437 15.0482 20.7489 15.0438 20.9585 15.0438C22.216 15.0438 23.229 15.2752 23.9975 15.7381C24.766 16.2009 25.1502 16.8166 25.1502 17.585V18.1876C25.1502 18.4845 25.0498 18.7334 24.849 18.9342C24.6481 19.1351 24.3992 19.2355 24.1023 19.2355H20.4346ZM4.19171 13.9959C3.61535 13.9959 3.12195 13.7907 2.71151 13.3802C2.30107 12.9698 2.09585 12.4764 2.09585 11.9C2.09585 11.3062 2.30107 10.8084 2.71151 10.4067C3.12195 10.005 3.61535 9.80418 4.19171 9.80418C4.78553 9.80418 5.2833 10.005 5.685 10.4067C6.08671 10.8084 6.28756 11.3062 6.28756 11.9C6.28756 12.4764 6.08671 12.9698 5.685 13.3802C5.2833 13.7907 4.78553 13.9959 4.19171 13.9959ZM20.9585 13.9959C20.3822 13.9959 19.8888 13.7907 19.4783 13.3802C19.0679 12.9698 18.8627 12.4764 18.8627 11.9C18.8627 11.3062 19.0679 10.8084 19.4783 10.4067C19.8888 10.005 20.3822 9.80418 20.9585 9.80418C21.5524 9.80418 22.0501 10.005 22.4518 10.4067C22.8535 10.8084 23.0544 11.3062 23.0544 11.9C23.0544 12.4764 22.8535 12.9698 22.4518 13.3802C22.0501 13.7907 21.5524 13.9959 20.9585 13.9959ZM12.5751 12.948C11.7018 12.948 10.9596 12.6423 10.3483 12.031C9.73698 11.4197 9.43134 10.6775 9.43134 9.80418C9.43134 8.91344 9.73698 8.16679 10.3483 7.56424C10.9596 6.96168 11.7018 6.6604 12.5751 6.6604C13.4659 6.6604 14.2125 6.96168 14.8151 7.56424C15.4176 8.16679 15.7189 8.91344 15.7189 9.80418C15.7189 10.6775 15.4176 11.4197 14.8151 12.031C14.2125 12.6423 13.4659 12.948 12.5751 12.948Z" fill="#FF8A00"/>
</g>
</g>
</svg>
