<svg width="25" height="25" viewBox="0 0 25 25" fill="none" xmlns="http://www.w3.org/2000/svg">
<rect width="25" height="25" fill="#1E1E1E"/>
<g id="Final Designs">
<path d="M-1281 -6929V-6938H-1290V-6929H-1281ZM28377 -6929H28386V-6938H28377V-6929ZM28377 2289V2298H28386V2289H28377ZM-1281 2289H-1290V2298H-1281V2289ZM-1290 -6929V-6878.9H-1272V-6929H-1290ZM-1290 -6778.71V-6678.51H-1272V-6778.71H-1290ZM-1290 -6578.32V-6478.12H-1272V-6578.32H-1290ZM-1290 -6377.92V-6277.73H-1272V-6377.92H-1290ZM-1290 -6177.53V-6077.34H-1272V-6177.53H-1290ZM-1290 -5977.14V-5876.95H-1272V-5977.14H-1290ZM-1290 -5776.75V-5676.55H-1272V-5776.75H-1290ZM-1290 -5576.36V-5476.16H-1272V-5576.36H-1290ZM-1290 -5375.97V-5275.77H-1272V-5375.97H-1290ZM-1290 -5175.58V-5075.38H-1272V-5175.58H-1290ZM-1290 -4975.18V-4874.99H-1272V-4975.18H-1290ZM-1290 -4774.79V-4674.6H-1272V-4774.79H-1290ZM-1290 -4574.4V-4474.21H-1272V-4574.4H-1290ZM-1290 -4374.01V-4273.82H-1272V-4374.01H-1290ZM-1290 -4173.62V-4073.42H-1272V-4173.62H-1290ZM-1290 -3973.23V-3873.03H-1272V-3973.23H-1290ZM-1290 -3772.84V-3672.64H-1272V-3772.84H-1290ZM-1290 -3572.45V-3472.25H-1272V-3572.45H-1290ZM-1290 -3372.06V-3271.86H-1272V-3372.06H-1290ZM-1290 -3171.66V-3071.47H-1272V-3171.66H-1290ZM-1290 -2971.27V-2871.08H-1272V-2971.27H-1290ZM-1290 -2770.88V-2670.69H-1272V-2770.88H-1290ZM-1290 -2570.49V-2470.29H-1272V-2570.49H-1290ZM-1290 -2370.1V-2269.9H-1272V-2370.1H-1290ZM-1290 -2169.71V-2069.51H-1272V-2169.71H-1290ZM-1290 -1969.32V-1869.12H-1272V-1969.32H-1290ZM-1290 -1768.92V-1668.73H-1272V-1768.92H-1290ZM-1290 -1568.53V-1468.34H-1272V-1568.53H-1290ZM-1290 -1368.14V-1267.95H-1272V-1368.14H-1290ZM-1290 -1167.75V-1067.55H-1272V-1167.75H-1290ZM-1290 -967.357V-867.162H-1272V-967.357H-1290ZM-1290 -766.966V-666.77H-1272V-766.966H-1290ZM-1290 -566.574V-466.378H-1272V-566.574H-1290ZM-1290 -366.183V-265.987H-1272V-366.183H-1290ZM-1290 -165.791V-65.5952H-1272V-165.791H-1290ZM-1290 34.6011V134.796H-1272V34.6011H-1290ZM-1290 234.992V335.188H-1272V234.992H-1290ZM-1290 435.384V535.58H-1272V435.384H-1290ZM-1290 635.775V735.971H-1272V635.775H-1290ZM-1290 836.167V936.363H-1272V836.167H-1290ZM-1290 1036.56V1136.75H-1272V1036.56H-1290ZM-1290 1236.95V1337.15H-1272V1236.95H-1290ZM-1290 1437.34V1537.54H-1272V1437.34H-1290ZM-1290 1637.73V1737.93H-1272V1637.73H-1290ZM-1290 1838.12V1938.32H-1272V1838.12H-1290ZM-1290 2038.51V2138.71H-1272V2038.51H-1290ZM-1290 2238.9V2289H-1272V2238.9H-1290ZM-1281 2298H-1230.9V2280H-1281V2298ZM-1130.71 2298H-1030.51V2280H-1130.71V2298ZM-930.314 2298H-830.118V2280H-930.314V2298ZM-729.922 2298H-629.726V2280H-729.922V2298ZM-529.53 2298H-429.335V2280H-529.53V2298ZM-329.139 2298H-228.943V2280H-329.139V2298ZM-128.747 2298H-28.5508V2280H-128.747V2298ZM71.6451 2298H171.841V2280H71.6451V2298ZM272.037 2298H372.233V2280H272.037V2298ZM472.429 2298H572.625V2280H472.429V2298ZM672.821 2298H773.017V2280H672.821V2298ZM873.213 2298H973.409V2280H873.213V2298ZM1073.6 2298H1173.8V2280H1073.6V2298ZM1274 2298H1374.19V2280H1274V2298ZM1474.39 2298H1574.58V2280H1474.39V2298ZM1674.78 2298H1774.98V2280H1674.78V2298ZM1875.17 2298H1975.37V2280H1875.17V2298ZM2075.57 2298H2175.76V2280H2075.57V2298ZM2275.96 2298H2376.15V2280H2275.96V2298ZM2476.35 2298H2576.55V2280H2476.35V2298ZM2676.74 2298H2776.94V2280H2676.74V2298ZM2877.13 2298H2977.33V2280H2877.13V2298ZM3077.52 2298H3177.72V2280H3077.52V2298ZM3277.92 2298H3378.11V2280H3277.92V2298ZM3478.31 2298H3578.5V2280H3478.31V2298ZM3678.7 2298H3778.9V2280H3678.7V2298ZM3879.09 2298H3979.29V2280H3879.09V2298ZM4079.48 2298H4179.68V2280H4079.48V2298ZM4279.87 2298H4380.07V2280H4279.87V2298ZM4480.27 2298H4580.46V2280H4480.27V2298ZM4680.66 2298H4780.85V2280H4680.66V2298ZM4881.05 2298H4981.25V2280H4881.05V2298ZM5081.44 2298H5181.64V2280H5081.44V2298ZM5281.83 2298H5382.03V2280H5281.83V2298ZM5482.22 2298H5582.42V2280H5482.22V2298ZM5682.62 2298H5782.81V2280H5682.62V2298ZM5883.01 2298H5983.2V2280H5883.01V2298ZM6083.4 2298H6183.59V2280H6083.4V2298ZM6283.79 2298H6383.99V2280H6283.79V2298ZM6484.18 2298H6584.38V2280H6484.18V2298ZM6684.57 2298H6784.77V2280H6684.57V2298ZM6884.97 2298H6985.16V2280H6884.97V2298ZM7085.36 2298H7185.55V2280H7085.36V2298ZM7285.75 2298H7385.95V2280H7285.75V2298ZM7486.14 2298H7586.34V2280H7486.14V2298ZM7686.54 2298H7786.73V2280H7686.54V2298ZM7886.93 2298H7987.12V2280H7886.93V2298ZM8087.32 2298H8187.52V2280H8087.32V2298ZM8287.71 2298H8387.91V2280H8287.71V2298ZM8488.11 2298H8588.3V2280H8488.11V2298ZM8688.5 2298H8788.69V2280H8688.5V2298ZM8888.89 2298H8989.09V2280H8888.89V2298ZM9089.28 2298H9189.48V2280H9089.28V2298ZM9289.68 2298H9389.87V2280H9289.68V2298ZM9490.07 2298H9590.26V2280H9490.07V2298ZM9690.46 2298H9790.66V2280H9690.46V2298ZM9890.85 2298H9991.05V2280H9890.85V2298ZM10091.2 2298H10191.4V2280H10091.2V2298ZM10291.6 2298H10391.8V2280H10291.6V2298ZM10492 2298H10592.2V2280H10492V2298ZM10692.4 2298H10792.6V2280H10692.4V2298ZM10892.8 2298H10993V2280H10892.8V2298ZM11093.2 2298H11193.4V2280H11093.2V2298ZM11293.6 2298H11393.8V2280H11293.6V2298ZM11494 2298H11594.2V2280H11494V2298ZM11694.4 2298H11794.6V2280H11694.4V2298ZM11894.8 2298H11995V2280H11894.8V2298ZM12095.2 2298H12195.4V2280H12095.2V2298ZM12295.6 2298H12395.8V2280H12295.6V2298ZM12496 2298H12596.2V2280H12496V2298ZM12696.3 2298H12796.5V2280H12696.3V2298ZM12896.7 2298H12996.9V2280H12896.7V2298ZM13097.1 2298H13197.3V2280H13097.1V2298ZM13297.5 2298H13397.7V2280H13297.5V2298ZM13497.9 2298H13598.1V2280H13497.9V2298ZM13698.3 2298H13798.5V2280H13698.3V2298ZM13898.7 2298H13998.9V2280H13898.7V2298ZM14099.1 2298H14199.3V2280H14099.1V2298ZM14299.5 2298H14399.7V2280H14299.5V2298ZM14499.9 2298H14600.1V2280H14499.9V2298ZM14700.3 2298H14800.5V2280H14700.3V2298ZM14900.7 2298H15000.9V2280H14900.7V2298ZM15101.1 2298H15201.3V2280H15101.1V2298ZM15301.5 2298H15401.6V2280H15301.5V2298ZM15501.8 2298H15602V2280H15501.8V2298ZM15702.2 2298H15802.4V2280H15702.2V2298ZM15902.6 2298H16002.8V2280H15902.6V2298ZM16103 2298H16203.2V2280H16103V2298ZM16303.4 2298H16403.6V2280H16303.4V2298ZM16503.8 2298H16604V2280H16503.8V2298ZM16704.2 2298H16804.4V2280H16704.2V2298ZM16904.6 2298H17004.8V2280H16904.6V2298ZM17105 2298H17205.2V2280H17105V2298ZM17305.4 2298H17405.6V2280H17305.4V2298ZM17505.7 2298H17605.9V2280H17505.7V2298ZM17706.1 2298H17806.3V2280H17706.1V2298ZM17906.5 2298H18006.7V2280H17906.5V2298ZM18106.9 2298H18207.1V2280H18106.9V2298ZM18307.3 2298H18407.5V2280H18307.3V2298ZM18507.7 2298H18607.9V2280H18507.7V2298ZM18708.1 2298H18808.3V2280H18708.1V2298ZM18908.5 2298H19008.7V2280H18908.5V2298ZM19108.9 2298H19209.1V2280H19108.9V2298ZM19309.3 2298H19409.5V2280H19309.3V2298ZM19509.7 2298H19609.8V2280H19509.7V2298ZM19710 2298H19810.2V2280H19710V2298ZM19910.4 2298H20010.6V2280H19910.4V2298ZM20110.8 2298H20211V2280H20110.8V2298ZM20311.2 2298H20411.4V2280H20311.2V2298ZM20511.6 2298H20611.8V2280H20511.6V2298ZM20712 2298H20812.2V2280H20712V2298ZM20912.4 2298H21012.6V2280H20912.4V2298ZM21112.8 2298H21213V2280H21112.8V2298ZM21313.2 2298H21413.4V2280H21313.2V2298ZM21513.6 2298H21613.8V2280H21513.6V2298ZM21714 2298H21814.1V2280H21714V2298ZM21914.3 2298H22014.5V2280H21914.3V2298ZM22114.7 2298H22214.9V2280H22114.7V2298ZM22315.1 2298H22415.3V2280H22315.1V2298ZM22515.5 2298H22615.7V2280H22515.5V2298ZM22715.9 2298H22816.1V2280H22715.9V2298ZM22916.3 2298H23016.5V2280H22916.3V2298ZM23116.7 2298H23216.9V2280H23116.7V2298ZM23317.1 2298H23417.3V2280H23317.1V2298ZM23517.5 2298H23617.7V2280H23517.5V2298ZM23717.9 2298H23818.1V2280H23717.9V2298ZM23918.2 2298H24018.4V2280H23918.2V2298ZM24118.6 2298H24218.8V2280H24118.6V2298ZM24319 2298H24419.2V2280H24319V2298ZM24519.4 2298H24619.6V2280H24519.4V2298ZM24719.8 2298H24820V2280H24719.8V2298ZM24920.2 2298H25020.4V2280H24920.2V2298ZM25120.6 2298H25220.8V2280H25120.6V2298ZM25321 2298H25421.2V2280H25321V2298ZM25521.4 2298H25621.6V2280H25521.4V2298ZM25721.8 2298H25822V2280H25721.8V2298ZM25922.2 2298H26022.3V2280H25922.2V2298ZM26122.5 2298H26222.7V2280H26122.5V2298ZM26322.9 2298H26423.1V2280H26322.9V2298ZM26523.3 2298H26623.5V2280H26523.3V2298ZM26723.7 2298H26823.9V2280H26723.7V2298ZM26924.1 2298H27024.3V2280H26924.1V2298ZM27124.5 2298H27224.7V2280H27124.5V2298ZM27324.9 2298H27425.1V2280H27324.9V2298ZM27525.3 2298H27625.5V2280H27525.3V2298ZM27725.7 2298H27825.9V2280H27725.7V2298ZM27926.1 2298H28026.3V2280H27926.1V2298ZM28126.5 2298H28226.6V2280H28126.5V2298ZM28326.8 2298H28377V2280H28326.8V2298ZM28386 2289V2238.9H28368V2289H28386ZM28386 2138.71V2038.51H28368V2138.71H28386ZM28386 1938.32V1838.12H28368V1938.32H28386ZM28386 1737.92V1637.73H28368V1737.92H28386ZM28386 1537.53V1437.34H28368V1537.53H28386ZM28386 1337.14V1236.95H28368V1337.14H28386ZM28386 1136.75V1036.55H28368V1136.75H28386ZM28386 936.358V836.163H28368V936.358H28386ZM28386 735.967V635.771H28368V735.967H28386ZM28386 535.576V435.38H28368V535.576H28386ZM28386 335.185V234.989H28368V335.185H28386ZM28386 134.793V34.5977H28368V134.793H28386ZM28386 -65.5977V-165.793H28368V-65.5977H28386ZM28386 -265.989V-366.185H28368V-265.989H28386ZM28386 -466.38V-566.576H28368V-466.38H28386ZM28386 -666.771V-766.967H28368V-666.771H28386ZM28386 -867.162V-967.358H28368V-867.162H28386ZM28386 -1067.55V-1167.75H28368V-1067.55H28386ZM28386 -1267.94V-1368.14H28368V-1267.94H28386ZM28386 -1468.34V-1568.53H28368V-1468.34H28386ZM28386 -1668.73V-1768.92H28368V-1668.73H28386ZM28386 -1869.12V-1969.31H28368V-1869.12H28386ZM28386 -2069.51V-2169.71H28368V-2069.51H28386ZM28386 -2269.9V-2370.1H28368V-2269.9H28386ZM28386 -2470.29V-2570.49H28368V-2470.29H28386ZM28386 -2670.68V-2770.88H28368V-2670.68H28386ZM28386 -2871.08V-2971.27H28368V-2871.08H28386ZM28386 -3071.47V-3171.66H28368V-3071.47H28386ZM28386 -3271.86V-3372.05H28368V-3271.86H28386ZM28386 -3472.25V-3572.45H28368V-3472.25H28386ZM28386 -3672.64V-3772.84H28368V-3672.64H28386ZM28386 -3873.03V-3973.23H28368V-3873.03H28386ZM28386 -4073.43V-4173.62H28368V-4073.43H28386ZM28386 -4273.82V-4374.01H28368V-4273.82H28386ZM28386 -4474.21V-4574.4H28368V-4474.21H28386ZM28386 -4674.6V-4774.8H28368V-4674.6H28386ZM28386 -4874.99V-4975.19H28368V-4874.99H28386ZM28386 -5075.38V-5175.58H28368V-5075.38H28386ZM28386 -5275.78V-5375.97H28368V-5275.78H28386ZM28386 -5476.17V-5576.36H28368V-5476.17H28386ZM28386 -5676.56V-5776.75H28368V-5676.56H28386ZM28386 -5876.95V-5977.15H28368V-5876.95H28386ZM28386 -6077.34V-6177.54H28368V-6077.34H28386ZM28386 -6277.73V-6377.93H28368V-6277.73H28386ZM28386 -6478.12V-6578.32H28368V-6478.12H28386ZM28386 -6678.51V-6778.71H28368V-6678.51H28386ZM28386 -6878.9V-6929H28368V-6878.9H28386ZM28377 -6938H28326.9V-6920H28377V-6938ZM28226.7 -6938H28126.5V-6920H28226.7V-6938ZM28026.3 -6938H27926.1V-6920H28026.3V-6938ZM27825.9 -6938H27725.7V-6920H27825.9V-6938ZM27625.5 -6938H27525.3V-6920H27625.5V-6938ZM27425.1 -6938H27324.9V-6920H27425.1V-6938ZM27224.7 -6938H27124.6V-6920H27224.7V-6938ZM27024.4 -6938H26924.2V-6920H27024.4V-6938ZM26824 -6938H26723.8V-6920H26824V-6938ZM26623.6 -6938H26523.4V-6920H26623.6V-6938ZM26423.2 -6938H26323V-6920H26423.2V-6938ZM26222.8 -6938H26122.6V-6920H26222.8V-6938ZM26022.4 -6938H25922.2V-6920H26022.4V-6938ZM25822 -6938H25721.8V-6920H25822V-6938ZM25621.6 -6938H25521.4V-6920H25621.6V-6938ZM25421.2 -6938H25321V-6920H25421.2V-6938ZM25220.8 -6938H25120.6V-6920H25220.8V-6938ZM25020.4 -6938H24920.2V-6920H25020.4V-6938ZM24820 -6938H24719.8V-6920H24820V-6938ZM24619.7 -6938H24519.5V-6920H24619.7V-6938ZM24419.3 -6938H24319.1V-6920H24419.3V-6938ZM24218.9 -6938H24118.7V-6920H24218.9V-6938ZM24018.5 -6938H23918.3V-6920H24018.5V-6938ZM23818.1 -6938H23717.9V-6920H23818.1V-6938ZM23617.7 -6938H23517.5V-6920H23617.7V-6938ZM23417.3 -6938H23317.1V-6920H23417.3V-6938ZM23216.9 -6938H23116.7V-6920H23216.9V-6938ZM23016.5 -6938H22916.3V-6920H23016.5V-6938ZM22816.1 -6938H22715.9V-6920H22816.1V-6938ZM22615.7 -6938H22515.5V-6920H22615.7V-6938ZM22415.3 -6938H22315.1V-6920H22415.3V-6938ZM22215 -6938H22114.8V-6920H22215V-6938ZM22014.6 -6938H21914.4V-6920H22014.6V-6938ZM21814.2 -6938H21714V-6920H21814.2V-6938ZM21613.8 -6938H21513.6V-6920H21613.8V-6938ZM21413.4 -6938H21313.2V-6920H21413.4V-6938ZM21213 -6938H21112.8V-6920H21213V-6938ZM21012.6 -6938H20912.4V-6920H21012.6V-6938ZM20812.2 -6938H20712V-6920H20812.2V-6938ZM20611.8 -6938H20511.6V-6920H20611.8V-6938ZM20411.4 -6938H20311.2V-6920H20411.4V-6938ZM20211 -6938H20110.8V-6920H20211V-6938ZM20010.6 -6938H19910.4V-6920H20010.6V-6938ZM19810.2 -6938H19710.1V-6920H19810.2V-6938ZM19609.9 -6938H19509.7V-6920H19609.9V-6938ZM19409.5 -6938H19309.3V-6920H19409.5V-6938ZM19209.1 -6938H19108.9V-6920H19209.1V-6938ZM19008.7 -6938H18908.5V-6920H19008.7V-6938ZM18808.3 -6938H18708.1V-6920H18808.3V-6938ZM18607.9 -6938H18507.7V-6920H18607.9V-6938ZM18407.5 -6938H18307.3V-6920H18407.5V-6938ZM18207.1 -6938H18106.9V-6920H18207.1V-6938ZM18006.7 -6938H17906.5V-6920H18006.7V-6938ZM17806.3 -6938H17706.1V-6920H17806.3V-6938ZM17605.9 -6938H17505.7V-6920H17605.9V-6938ZM17405.5 -6938H17305.3V-6920H17405.5V-6938ZM17205.1 -6938H17105V-6920H17205.1V-6938ZM17004.8 -6938H16904.6V-6920H17004.8V-6938ZM16804.4 -6938H16704.2V-6920H16804.4V-6938ZM16604 -6938H16503.8V-6920H16604V-6938ZM16403.6 -6938H16303.4V-6920H16403.6V-6938ZM16203.2 -6938H16103V-6920H16203.2V-6938ZM16002.8 -6938H15902.6V-6920H16002.8V-6938ZM15802.4 -6938H15702.2V-6920H15802.4V-6938ZM15602 -6938H15501.8V-6920H15602V-6938ZM15401.6 -6938H15301.4V-6920H15401.6V-6938ZM15201.2 -6938H15101V-6920H15201.2V-6938ZM15000.8 -6938H14900.6V-6920H15000.8V-6938ZM14800.4 -6938H14700.2V-6920H14800.4V-6938ZM14600 -6938H14499.8V-6920H14600V-6938ZM14399.7 -6938H14299.5V-6920H14399.7V-6938ZM14199.3 -6938H14099.1V-6920H14199.3V-6938ZM13998.9 -6938H13898.7V-6920H13998.9V-6938ZM13798.5 -6938H13698.3V-6920H13798.5V-6938ZM13598.1 -6938H13497.9V-6920H13598.1V-6938ZM13397.7 -6938H13297.5V-6920H13397.7V-6938ZM13197.3 -6938H13097.1V-6920H13197.3V-6938ZM12996.9 -6938H12896.7V-6920H12996.9V-6938ZM12796.5 -6938H12696.3V-6920H12796.5V-6938ZM12596.1 -6938H12495.9V-6920H12596.1V-6938ZM12395.7 -6938H12295.5V-6920H12395.7V-6938ZM12195.3 -6938H12095.1V-6920H12195.3V-6938ZM11994.9 -6938H11894.7V-6920H11994.9V-6938ZM11794.5 -6938H11694.4V-6920H11794.5V-6938ZM11594.2 -6938H11494V-6920H11594.2V-6938ZM11393.8 -6938H11293.6V-6920H11393.8V-6938ZM11193.4 -6938H11093.2V-6920H11193.4V-6938ZM10993 -6938H10892.8V-6920H10993V-6938ZM10792.6 -6938H10692.4V-6920H10792.6V-6938ZM10592.2 -6938H10492V-6920H10592.2V-6938ZM10391.8 -6938H10291.6V-6920H10391.8V-6938ZM10191.4 -6938H10091.2V-6920H10191.4V-6938ZM9991.03 -6938H9890.84V-6920H9991.03V-6938ZM9790.64 -6938H9690.45V-6920H9790.64V-6938ZM9590.25 -6938H9490.06V-6920H9590.25V-6938ZM9389.86 -6938H9289.67V-6920H9389.86V-6938ZM9189.47 -6938H9089.28V-6920H9189.47V-6938ZM8989.08 -6938H8888.88V-6920H8989.08V-6938ZM8788.69 -6938H8688.49V-6920H8788.69V-6938ZM8588.3 -6938H8488.1V-6920H8588.3V-6938ZM8387.91 -6938H8287.71V-6920H8387.91V-6938ZM8187.52 -6938H8087.32V-6920H8187.52V-6938ZM7987.13 -6938H7886.93V-6920H7987.13V-6938ZM7786.74 -6938H7686.54V-6920H7786.74V-6938ZM7586.34 -6938H7486.15V-6920H7586.34V-6938ZM7385.96 -6938H7285.76V-6920H7385.96V-6938ZM7185.57 -6938H7085.37V-6920H7185.57V-6938ZM6985.17 -6938H6884.98V-6920H6985.17V-6938ZM6784.78 -6938H6684.59V-6920H6784.78V-6938ZM6584.39 -6938H6484.2V-6920H6584.39V-6938ZM6384 -6938H6283.81V-6920H6384V-6938ZM6183.61 -6938H6083.42V-6920H6183.61V-6938ZM5983.22 -6938H5883.02V-6920H5983.22V-6938ZM5782.83 -6938H5682.63V-6920H5782.83V-6938ZM5582.44 -6938H5482.24V-6920H5582.44V-6938ZM5382.05 -6938H5281.85V-6920H5382.05V-6938ZM5181.66 -6938H5081.46V-6920H5181.66V-6938ZM4981.27 -6938H4881.07V-6920H4981.27V-6938ZM4780.88 -6938H4680.68V-6920H4780.88V-6938ZM4580.49 -6938H4480.29V-6920H4580.49V-6938ZM4380.1 -6938H4279.9V-6920H4380.1V-6938ZM4179.71 -6938H4079.51V-6920H4179.71V-6938ZM3979.31 -6938H3879.12V-6920H3979.31V-6938ZM3778.92 -6938H3678.73V-6920H3778.92V-6938ZM3578.53 -6938H3478.34V-6920H3578.53V-6938ZM3378.14 -6938H3277.95V-6920H3378.14V-6938ZM3177.75 -6938H3077.56V-6920H3177.75V-6938ZM2977.36 -6938H2877.17V-6920H2977.36V-6938ZM2776.97 -6938H2676.78V-6920H2776.97V-6938ZM2576.58 -6938H2476.39V-6920H2576.58V-6938ZM2376.19 -6938H2275.99V-6920H2376.19V-6938ZM2175.8 -6938H2075.6V-6920H2175.8V-6938ZM1975.41 -6938H1875.21V-6920H1975.41V-6938ZM1775.02 -6938H1674.82V-6920H1775.02V-6938ZM1574.63 -6938H1474.43V-6920H1574.63V-6938ZM1374.24 -6938H1274.04V-6920H1374.24V-6938ZM1173.85 -6938H1073.65V-6920H1173.85V-6938ZM973.455 -6938H873.26V-6920H973.455V-6938ZM773.064 -6938H672.869V-6920H773.064V-6938ZM572.674 -6938H472.478V-6920H572.674V-6938ZM372.284 -6938H272.087V-6920H372.284V-6938ZM171.893 -6938H71.6964V-6920H171.893V-6938ZM-28.4982 -6938H-128.693V-6920H-28.4982V-6938ZM-228.889 -6938H-329.084V-6920H-228.889V-6938ZM-429.28 -6938H-529.474V-6920H-429.28V-6938ZM-629.669 -6938H-729.865V-6920H-629.669V-6938ZM-830.06 -6938H-930.256V-6920H-830.06V-6938ZM-1030.45 -6938H-1130.65V-6920H-1030.45V-6938ZM-1230.84 -6938H-1281V-6920H-1230.84V-6938ZM-1281 -6929V-6947H-1299V-6929H-1281ZM28377 -6929H28395V-6947H28377V-6929ZM28377 2289V2307H28395V2289H28377ZM-1281 2289H-1299V2307H-1281V2289ZM-1299 -6929V-6878.9H-1263V-6929H-1299ZM-1299 -6778.71V-6678.51H-1263V-6778.71H-1299ZM-1299 -6578.32V-6478.12H-1263V-6578.32H-1299ZM-1299 -6377.92V-6277.73H-1263V-6377.92H-1299ZM-1299 -6177.53V-6077.34H-1263V-6177.53H-1299ZM-1299 -5977.14V-5876.95H-1263V-5977.14H-1299ZM-1299 -5776.75V-5676.55H-1263V-5776.75H-1299ZM-1299 -5576.36V-5476.16H-1263V-5576.36H-1299ZM-1299 -5375.97V-5275.77H-1263V-5375.97H-1299ZM-1299 -5175.58V-5075.38H-1263V-5175.58H-1299ZM-1299 -4975.18V-4874.99H-1263V-4975.18H-1299ZM-1299 -4774.79V-4674.6H-1263V-4774.79H-1299ZM-1299 -4574.4V-4474.21H-1263V-4574.4H-1299ZM-1299 -4374.01V-4273.82H-1263V-4374.01H-1299ZM-1299 -4173.62V-4073.42H-1263V-4173.62H-1299ZM-1299 -3973.23V-3873.03H-1263V-3973.23H-1299ZM-1299 -3772.84V-3672.64H-1263V-3772.84H-1299ZM-1299 -3572.45V-3472.25H-1263V-3572.45H-1299ZM-1299 -3372.06V-3271.86H-1263V-3372.06H-1299ZM-1299 -3171.66V-3071.47H-1263V-3171.66H-1299ZM-1299 -2971.27V-2871.08H-1263V-2971.27H-1299ZM-1299 -2770.88V-2670.69H-1263V-2770.88H-1299ZM-1299 -2570.49V-2470.29H-1263V-2570.49H-1299ZM-1299 -2370.1V-2269.9H-1263V-2370.1H-1299ZM-1299 -2169.71V-2069.51H-1263V-2169.71H-1299ZM-1299 -1969.32V-1869.12H-1263V-1969.32H-1299ZM-1299 -1768.92V-1668.73H-1263V-1768.92H-1299ZM-1299 -1568.53V-1468.34H-1263V-1568.53H-1299ZM-1299 -1368.14V-1267.95H-1263V-1368.14H-1299ZM-1299 -1167.75V-1067.55H-1263V-1167.75H-1299ZM-1299 -967.357V-867.162H-1263V-967.357H-1299ZM-1299 -766.966V-666.77H-1263V-766.966H-1299ZM-1299 -566.574V-466.378H-1263V-566.574H-1299ZM-1299 -366.183V-265.987H-1263V-366.183H-1299ZM-1299 -165.791V-65.5952H-1263V-165.791H-1299ZM-1299 34.6011V134.796H-1263V34.6011H-1299ZM-1299 234.992V335.188H-1263V234.992H-1299ZM-1299 435.384V535.58H-1263V435.384H-1299ZM-1299 635.775V735.971H-1263V635.775H-1299ZM-1299 836.167V936.363H-1263V836.167H-1299ZM-1299 1036.56V1136.75H-1263V1036.56H-1299ZM-1299 1236.95V1337.15H-1263V1236.95H-1299ZM-1299 1437.34V1537.54H-1263V1437.34H-1299ZM-1299 1637.73V1737.93H-1263V1637.73H-1299ZM-1299 1838.12V1938.32H-1263V1838.12H-1299ZM-1299 2038.51V2138.71H-1263V2038.51H-1299ZM-1299 2238.9V2289H-1263V2238.9H-1299ZM-1281 2307H-1230.9V2271H-1281V2307ZM-1130.71 2307H-1030.51V2271H-1130.71V2307ZM-930.314 2307H-830.118V2271H-930.314V2307ZM-729.922 2307H-629.726V2271H-729.922V2307ZM-529.53 2307H-429.335V2271H-529.53V2307ZM-329.139 2307H-228.943V2271H-329.139V2307ZM-128.747 2307H-28.5508V2271H-128.747V2307ZM71.6451 2307H171.841V2271H71.6451V2307ZM272.037 2307H372.233V2271H272.037V2307ZM472.429 2307H572.625V2271H472.429V2307ZM672.821 2307H773.017V2271H672.821V2307ZM873.213 2307H973.409V2271H873.213V2307ZM1073.6 2307H1173.8V2271H1073.6V2307ZM1274 2307H1374.19V2271H1274V2307ZM1474.39 2307H1574.58V2271H1474.39V2307ZM1674.78 2307H1774.98V2271H1674.78V2307ZM1875.17 2307H1975.37V2271H1875.17V2307ZM2075.57 2307H2175.76V2271H2075.57V2307ZM2275.96 2307H2376.15V2271H2275.96V2307ZM2476.35 2307H2576.55V2271H2476.35V2307ZM2676.74 2307H2776.94V2271H2676.74V2307ZM2877.13 2307H2977.33V2271H2877.13V2307ZM3077.52 2307H3177.72V2271H3077.52V2307ZM3277.92 2307H3378.11V2271H3277.92V2307ZM3478.31 2307H3578.5V2271H3478.31V2307ZM3678.7 2307H3778.9V2271H3678.7V2307ZM3879.09 2307H3979.29V2271H3879.09V2307ZM4079.48 2307H4179.68V2271H4079.48V2307ZM4279.87 2307H4380.07V2271H4279.87V2307ZM4480.27 2307H4580.46V2271H4480.27V2307ZM4680.66 2307H4780.85V2271H4680.66V2307ZM4881.05 2307H4981.25V2271H4881.05V2307ZM5081.44 2307H5181.64V2271H5081.44V2307ZM5281.83 2307H5382.03V2271H5281.83V2307ZM5482.22 2307H5582.42V2271H5482.22V2307ZM5682.62 2307H5782.81V2271H5682.62V2307ZM5883.01 2307H5983.2V2271H5883.01V2307ZM6083.4 2307H6183.59V2271H6083.4V2307ZM6283.79 2307H6383.99V2271H6283.79V2307ZM6484.18 2307H6584.38V2271H6484.18V2307ZM6684.57 2307H6784.77V2271H6684.57V2307ZM6884.97 2307H6985.16V2271H6884.97V2307ZM7085.36 2307H7185.55V2271H7085.36V2307ZM7285.75 2307H7385.95V2271H7285.75V2307ZM7486.14 2307H7586.34V2271H7486.14V2307ZM7686.54 2307H7786.73V2271H7686.54V2307ZM7886.93 2307H7987.12V2271H7886.93V2307ZM8087.32 2307H8187.52V2271H8087.32V2307ZM8287.71 2307H8387.91V2271H8287.71V2307ZM8488.11 2307H8588.3V2271H8488.11V2307ZM8688.5 2307H8788.69V2271H8688.5V2307ZM8888.89 2307H8989.09V2271H8888.89V2307ZM9089.28 2307H9189.48V2271H9089.28V2307ZM9289.68 2307H9389.87V2271H9289.68V2307ZM9490.07 2307H9590.26V2271H9490.07V2307ZM9690.46 2307H9790.66V2271H9690.46V2307ZM9890.85 2307H9991.05V2271H9890.85V2307ZM10091.2 2307H10191.4V2271H10091.2V2307ZM10291.6 2307H10391.8V2271H10291.6V2307ZM10492 2307H10592.2V2271H10492V2307ZM10692.4 2307H10792.6V2271H10692.4V2307ZM10892.8 2307H10993V2271H10892.8V2307ZM11093.2 2307H11193.4V2271H11093.2V2307ZM11293.6 2307H11393.8V2271H11293.6V2307ZM11494 2307H11594.2V2271H11494V2307ZM11694.4 2307H11794.6V2271H11694.4V2307ZM11894.8 2307H11995V2271H11894.8V2307ZM12095.2 2307H12195.4V2271H12095.2V2307ZM12295.6 2307H12395.8V2271H12295.6V2307ZM12496 2307H12596.2V2271H12496V2307ZM12696.3 2307H12796.5V2271H12696.3V2307ZM12896.7 2307H12996.9V2271H12896.7V2307ZM13097.1 2307H13197.3V2271H13097.1V2307ZM13297.5 2307H13397.7V2271H13297.5V2307ZM13497.9 2307H13598.1V2271H13497.9V2307ZM13698.3 2307H13798.5V2271H13698.3V2307ZM13898.7 2307H13998.9V2271H13898.7V2307ZM14099.1 2307H14199.3V2271H14099.1V2307ZM14299.5 2307H14399.7V2271H14299.5V2307ZM14499.9 2307H14600.1V2271H14499.9V2307ZM14700.3 2307H14800.5V2271H14700.3V2307ZM14900.7 2307H15000.9V2271H14900.7V2307ZM15101.1 2307H15201.3V2271H15101.1V2307ZM15301.5 2307H15401.6V2271H15301.5V2307ZM15501.8 2307H15602V2271H15501.8V2307ZM15702.2 2307H15802.4V2271H15702.2V2307ZM15902.6 2307H16002.8V2271H15902.6V2307ZM16103 2307H16203.2V2271H16103V2307ZM16303.4 2307H16403.6V2271H16303.4V2307ZM16503.8 2307H16604V2271H16503.8V2307ZM16704.2 2307H16804.4V2271H16704.2V2307ZM16904.6 2307H17004.8V2271H16904.6V2307ZM17105 2307H17205.2V2271H17105V2307ZM17305.4 2307H17405.6V2271H17305.4V2307ZM17505.7 2307H17605.9V2271H17505.7V2307ZM17706.1 2307H17806.3V2271H17706.1V2307ZM17906.5 2307H18006.7V2271H17906.5V2307ZM18106.9 2307H18207.1V2271H18106.9V2307ZM18307.3 2307H18407.5V2271H18307.3V2307ZM18507.7 2307H18607.9V2271H18507.7V2307ZM18708.1 2307H18808.3V2271H18708.1V2307ZM18908.5 2307H19008.7V2271H18908.5V2307ZM19108.9 2307H19209.1V2271H19108.9V2307ZM19309.3 2307H19409.5V2271H19309.3V2307ZM19509.7 2307H19609.8V2271H19509.7V2307ZM19710 2307H19810.2V2271H19710V2307ZM19910.4 2307H20010.6V2271H19910.4V2307ZM20110.8 2307H20211V2271H20110.8V2307ZM20311.2 2307H20411.4V2271H20311.2V2307ZM20511.6 2307H20611.8V2271H20511.6V2307ZM20712 2307H20812.2V2271H20712V2307ZM20912.4 2307H21012.6V2271H20912.4V2307ZM21112.8 2307H21213V2271H21112.8V2307ZM21313.2 2307H21413.4V2271H21313.2V2307ZM21513.6 2307H21613.8V2271H21513.6V2307ZM21714 2307H21814.1V2271H21714V2307ZM21914.3 2307H22014.5V2271H21914.3V2307ZM22114.7 2307H22214.9V2271H22114.7V2307ZM22315.1 2307H22415.3V2271H22315.1V2307ZM22515.5 2307H22615.7V2271H22515.5V2307ZM22715.9 2307H22816.1V2271H22715.9V2307ZM22916.3 2307H23016.5V2271H22916.3V2307ZM23116.7 2307H23216.9V2271H23116.7V2307ZM23317.1 2307H23417.3V2271H23317.1V2307ZM23517.5 2307H23617.7V2271H23517.5V2307ZM23717.9 2307H23818.1V2271H23717.9V2307ZM23918.2 2307H24018.4V2271H23918.2V2307ZM24118.6 2307H24218.8V2271H24118.6V2307ZM24319 2307H24419.2V2271H24319V2307ZM24519.4 2307H24619.6V2271H24519.4V2307ZM24719.8 2307H24820V2271H24719.8V2307ZM24920.2 2307H25020.4V2271H24920.2V2307ZM25120.6 2307H25220.8V2271H25120.6V2307ZM25321 2307H25421.2V2271H25321V2307ZM25521.4 2307H25621.6V2271H25521.4V2307ZM25721.8 2307H25822V2271H25721.8V2307ZM25922.2 2307H26022.3V2271H25922.2V2307ZM26122.5 2307H26222.7V2271H26122.5V2307ZM26322.9 2307H26423.1V2271H26322.9V2307ZM26523.3 2307H26623.5V2271H26523.3V2307ZM26723.7 2307H26823.9V2271H26723.7V2307ZM26924.1 2307H27024.3V2271H26924.1V2307ZM27124.5 2307H27224.7V2271H27124.5V2307ZM27324.9 2307H27425.1V2271H27324.9V2307ZM27525.3 2307H27625.5V2271H27525.3V2307ZM27725.7 2307H27825.9V2271H27725.7V2307ZM27926.1 2307H28026.3V2271H27926.1V2307ZM28126.5 2307H28226.6V2271H28126.5V2307ZM28326.8 2307H28377V2271H28326.8V2307ZM28395 2289V2238.9H28359V2289H28395ZM28395 2138.71V2038.51H28359V2138.71H28395ZM28395 1938.32V1838.12H28359V1938.32H28395ZM28395 1737.92V1637.73H28359V1737.92H28395ZM28395 1537.53V1437.34H28359V1537.53H28395ZM28395 1337.14V1236.95H28359V1337.14H28395ZM28395 1136.75V1036.55H28359V1136.75H28395ZM28395 936.358V836.163H28359V936.358H28395ZM28395 735.967V635.771H28359V735.967H28395ZM28395 535.576V435.38H28359V535.576H28395ZM28395 335.185V234.989H28359V335.185H28395ZM28395 134.793V34.5977H28359V134.793H28395ZM28395 -65.5977V-165.793H28359V-65.5977H28395ZM28395 -265.989V-366.185H28359V-265.989H28395ZM28395 -466.38V-566.576H28359V-466.38H28395ZM28395 -666.771V-766.967H28359V-666.771H28395ZM28395 -867.162V-967.358H28359V-867.162H28395ZM28395 -1067.55V-1167.75H28359V-1067.55H28395ZM28395 -1267.94V-1368.14H28359V-1267.94H28395ZM28395 -1468.34V-1568.53H28359V-1468.34H28395ZM28395 -1668.73V-1768.92H28359V-1668.73H28395ZM28395 -1869.12V-1969.31H28359V-1869.12H28395ZM28395 -2069.51V-2169.71H28359V-2069.51H28395ZM28395 -2269.9V-2370.1H28359V-2269.9H28395ZM28395 -2470.29V-2570.49H28359V-2470.29H28395ZM28395 -2670.68V-2770.88H28359V-2670.68H28395ZM28395 -2871.08V-2971.27H28359V-2871.08H28395ZM28395 -3071.47V-3171.66H28359V-3071.47H28395ZM28395 -3271.86V-3372.05H28359V-3271.86H28395ZM28395 -3472.25V-3572.45H28359V-3472.25H28395ZM28395 -3672.64V-3772.84H28359V-3672.64H28395ZM28395 -3873.03V-3973.23H28359V-3873.03H28395ZM28395 -4073.43V-4173.62H28359V-4073.43H28395ZM28395 -4273.82V-4374.01H28359V-4273.82H28395ZM28395 -4474.21V-4574.4H28359V-4474.21H28395ZM28395 -4674.6V-4774.8H28359V-4674.6H28395ZM28395 -4874.99V-4975.19H28359V-4874.99H28395ZM28395 -5075.38V-5175.58H28359V-5075.38H28395ZM28395 -5275.78V-5375.97H28359V-5275.78H28395ZM28395 -5476.17V-5576.36H28359V-5476.17H28395ZM28395 -5676.56V-5776.75H28359V-5676.56H28395ZM28395 -5876.95V-5977.15H28359V-5876.95H28395ZM28395 -6077.34V-6177.54H28359V-6077.34H28395ZM28395 -6277.73V-6377.93H28359V-6277.73H28395ZM28395 -6478.12V-6578.32H28359V-6478.12H28395ZM28395 -6678.51V-6778.71H28359V-6678.51H28395ZM28395 -6878.9V-6929H28359V-6878.9H28395ZM28377 -6947H28326.9V-6911H28377V-6947ZM28226.7 -6947H28126.5V-6911H28226.7V-6947ZM28026.3 -6947H27926.1V-6911H28026.3V-6947ZM27825.9 -6947H27725.7V-6911H27825.9V-6947ZM27625.5 -6947H27525.3V-6911H27625.5V-6947ZM27425.1 -6947H27324.9V-6911H27425.1V-6947ZM27224.7 -6947H27124.6V-6911H27224.7V-6947ZM27024.4 -6947H26924.2V-6911H27024.4V-6947ZM26824 -6947H26723.8V-6911H26824V-6947ZM26623.6 -6947H26523.4V-6911H26623.6V-6947ZM26423.2 -6947H26323V-6911H26423.2V-6947ZM26222.8 -6947H26122.6V-6911H26222.8V-6947ZM26022.4 -6947H25922.2V-6911H26022.4V-6947ZM25822 -6947H25721.8V-6911H25822V-6947ZM25621.6 -6947H25521.4V-6911H25621.6V-6947ZM25421.2 -6947H25321V-6911H25421.2V-6947ZM25220.8 -6947H25120.6V-6911H25220.8V-6947ZM25020.4 -6947H24920.2V-6911H25020.4V-6947ZM24820 -6947H24719.8V-6911H24820V-6947ZM24619.7 -6947H24519.5V-6911H24619.7V-6947ZM24419.3 -6947H24319.1V-6911H24419.3V-6947ZM24218.9 -6947H24118.7V-6911H24218.9V-6947ZM24018.5 -6947H23918.3V-6911H24018.5V-6947ZM23818.1 -6947H23717.9V-6911H23818.1V-6947ZM23617.7 -6947H23517.5V-6911H23617.7V-6947ZM23417.3 -6947H23317.1V-6911H23417.3V-6947ZM23216.9 -6947H23116.7V-6911H23216.9V-6947ZM23016.5 -6947H22916.3V-6911H23016.5V-6947ZM22816.1 -6947H22715.9V-6911H22816.1V-6947ZM22615.7 -6947H22515.5V-6911H22615.7V-6947ZM22415.3 -6947H22315.1V-6911H22415.3V-6947ZM22215 -6947H22114.8V-6911H22215V-6947ZM22014.6 -6947H21914.4V-6911H22014.6V-6947ZM21814.2 -6947H21714V-6911H21814.2V-6947ZM21613.8 -6947H21513.6V-6911H21613.8V-6947ZM21413.4 -6947H21313.2V-6911H21413.4V-6947ZM21213 -6947H21112.8V-6911H21213V-6947ZM21012.6 -6947H20912.4V-6911H21012.6V-6947ZM20812.2 -6947H20712V-6911H20812.2V-6947ZM20611.8 -6947H20511.6V-6911H20611.8V-6947ZM20411.4 -6947H20311.2V-6911H20411.4V-6947ZM20211 -6947H20110.8V-6911H20211V-6947ZM20010.6 -6947H19910.4V-6911H20010.6V-6947ZM19810.2 -6947H19710.1V-6911H19810.2V-6947ZM19609.9 -6947H19509.7V-6911H19609.9V-6947ZM19409.5 -6947H19309.3V-6911H19409.5V-6947ZM19209.1 -6947H19108.9V-6911H19209.1V-6947ZM19008.7 -6947H18908.5V-6911H19008.7V-6947ZM18808.3 -6947H18708.1V-6911H18808.3V-6947ZM18607.9 -6947H18507.7V-6911H18607.9V-6947ZM18407.5 -6947H18307.3V-6911H18407.5V-6947ZM18207.1 -6947H18106.9V-6911H18207.1V-6947ZM18006.7 -6947H17906.5V-6911H18006.7V-6947ZM17806.3 -6947H17706.1V-6911H17806.3V-6947ZM17605.9 -6947H17505.7V-6911H17605.9V-6947ZM17405.5 -6947H17305.3V-6911H17405.5V-6947ZM17205.1 -6947H17105V-6911H17205.1V-6947ZM17004.8 -6947H16904.6V-6911H17004.8V-6947ZM16804.4 -6947H16704.2V-6911H16804.4V-6947ZM16604 -6947H16503.8V-6911H16604V-6947ZM16403.6 -6947H16303.4V-6911H16403.6V-6947ZM16203.2 -6947H16103V-6911H16203.2V-6947ZM16002.8 -6947H15902.6V-6911H16002.8V-6947ZM15802.4 -6947H15702.2V-6911H15802.4V-6947ZM15602 -6947H15501.8V-6911H15602V-6947ZM15401.6 -6947H15301.4V-6911H15401.6V-6947ZM15201.2 -6947H15101V-6911H15201.2V-6947ZM15000.8 -6947H14900.6V-6911H15000.8V-6947ZM14800.4 -6947H14700.2V-6911H14800.4V-6947ZM14600 -6947H14499.8V-6911H14600V-6947ZM14399.7 -6947H14299.5V-6911H14399.7V-6947ZM14199.3 -6947H14099.1V-6911H14199.3V-6947ZM13998.9 -6947H13898.7V-6911H13998.9V-6947ZM13798.5 -6947H13698.3V-6911H13798.5V-6947ZM13598.1 -6947H13497.9V-6911H13598.1V-6947ZM13397.7 -6947H13297.5V-6911H13397.7V-6947ZM13197.3 -6947H13097.1V-6911H13197.3V-6947ZM12996.9 -6947H12896.7V-6911H12996.9V-6947ZM12796.5 -6947H12696.3V-6911H12796.5V-6947ZM12596.1 -6947H12495.9V-6911H12596.1V-6947ZM12395.7 -6947H12295.5V-6911H12395.7V-6947ZM12195.3 -6947H12095.1V-6911H12195.3V-6947ZM11994.9 -6947H11894.7V-6911H11994.9V-6947ZM11794.5 -6947H11694.4V-6911H11794.5V-6947ZM11594.2 -6947H11494V-6911H11594.2V-6947ZM11393.8 -6947H11293.6V-6911H11393.8V-6947ZM11193.4 -6947H11093.2V-6911H11193.4V-6947ZM10993 -6947H10892.8V-6911H10993V-6947ZM10792.6 -6947H10692.4V-6911H10792.6V-6947ZM10592.2 -6947H10492V-6911H10592.2V-6947ZM10391.8 -6947H10291.6V-6911H10391.8V-6947ZM10191.4 -6947H10091.2V-6911H10191.4V-6947ZM9991.03 -6947H9890.84V-6911H9991.03V-6947ZM9790.64 -6947H9690.45V-6911H9790.64V-6947ZM9590.25 -6947H9490.06V-6911H9590.25V-6947ZM9389.86 -6947H9289.67V-6911H9389.86V-6947ZM9189.47 -6947H9089.28V-6911H9189.47V-6947ZM8989.08 -6947H8888.88V-6911H8989.08V-6947ZM8788.69 -6947H8688.49V-6911H8788.69V-6947ZM8588.3 -6947H8488.1V-6911H8588.3V-6947ZM8387.91 -6947H8287.71V-6911H8387.91V-6947ZM8187.52 -6947H8087.32V-6911H8187.52V-6947ZM7987.13 -6947H7886.93V-6911H7987.13V-6947ZM7786.74 -6947H7686.54V-6911H7786.74V-6947ZM7586.34 -6947H7486.15V-6911H7586.34V-6947ZM7385.96 -6947H7285.76V-6911H7385.96V-6947ZM7185.57 -6947H7085.37V-6911H7185.57V-6947ZM6985.17 -6947H6884.98V-6911H6985.17V-6947ZM6784.78 -6947H6684.59V-6911H6784.78V-6947ZM6584.39 -6947H6484.2V-6911H6584.39V-6947ZM6384 -6947H6283.81V-6911H6384V-6947ZM6183.61 -6947H6083.42V-6911H6183.61V-6947ZM5983.22 -6947H5883.02V-6911H5983.22V-6947ZM5782.83 -6947H5682.63V-6911H5782.83V-6947ZM5582.44 -6947H5482.24V-6911H5582.44V-6947ZM5382.05 -6947H5281.85V-6911H5382.05V-6947ZM5181.66 -6947H5081.46V-6911H5181.66V-6947ZM4981.27 -6947H4881.07V-6911H4981.27V-6947ZM4780.88 -6947H4680.68V-6911H4780.88V-6947ZM4580.49 -6947H4480.29V-6911H4580.49V-6947ZM4380.1 -6947H4279.9V-6911H4380.1V-6947ZM4179.71 -6947H4079.51V-6911H4179.71V-6947ZM3979.31 -6947H3879.12V-6911H3979.31V-6947ZM3778.92 -6947H3678.73V-6911H3778.92V-6947ZM3578.53 -6947H3478.34V-6911H3578.53V-6947ZM3378.14 -6947H3277.95V-6911H3378.14V-6947ZM3177.75 -6947H3077.56V-6911H3177.75V-6947ZM2977.36 -6947H2877.17V-6911H2977.36V-6947ZM2776.97 -6947H2676.78V-6911H2776.97V-6947ZM2576.58 -6947H2476.39V-6911H2576.58V-6947ZM2376.19 -6947H2275.99V-6911H2376.19V-6947ZM2175.8 -6947H2075.6V-6911H2175.8V-6947ZM1975.41 -6947H1875.21V-6911H1975.41V-6947ZM1775.02 -6947H1674.82V-6911H1775.02V-6947ZM1574.63 -6947H1474.43V-6911H1574.63V-6947ZM1374.24 -6947H1274.04V-6911H1374.24V-6947ZM1173.85 -6947H1073.65V-6911H1173.85V-6947ZM973.455 -6947H873.26V-6911H973.455V-6947ZM773.064 -6947H672.869V-6911H773.064V-6947ZM572.674 -6947H472.478V-6911H572.674V-6947ZM372.284 -6947H272.087V-6911H372.284V-6947ZM171.893 -6947H71.6964V-6911H171.893V-6947ZM-28.4982 -6947H-128.693V-6911H-28.4982V-6947ZM-228.889 -6947H-329.084V-6911H-228.889V-6947ZM-429.28 -6947H-529.474V-6911H-429.28V-6947ZM-629.669 -6947H-729.865V-6911H-629.669V-6947ZM-830.06 -6947H-930.256V-6911H-830.06V-6947ZM-1030.45 -6947H-1130.65V-6911H-1030.45V-6947ZM-1230.84 -6947H-1281V-6911H-1230.84V-6947Z" fill="white"/>
<g id="Login/Signup page">
<path d="M-571 -817V-819.5H-573.5V-817H-571ZM3053 -817H3055.5V-819.5H3053V-817ZM3053 1824V1826.5H3055.5V1824H3053ZM-571 1824H-573.5V1826.5H-571V1824ZM-573.5 -817V-766.212H-568.5V-817H-573.5ZM-573.5 -664.635V-563.058H-568.5V-664.635H-573.5ZM-573.5 -461.481V-359.904H-568.5V-461.481H-573.5ZM-573.5 -258.327V-156.75H-568.5V-258.327H-573.5ZM-573.5 -55.1732V46.4037H-568.5V-55.1732H-573.5ZM-573.5 147.981V249.558H-568.5V147.981H-573.5ZM-573.5 351.135V452.711H-568.5V351.135H-573.5ZM-573.5 554.288V655.865H-568.5V554.288H-573.5ZM-573.5 757.442V859.019H-568.5V757.442H-573.5ZM-573.5 960.596V1062.17H-568.5V960.596H-573.5ZM-573.5 1163.75V1265.33H-568.5V1163.75H-573.5ZM-573.5 1366.9V1468.48H-568.5V1366.9H-573.5ZM-573.5 1570.06V1671.63H-568.5V1570.06H-573.5ZM-573.5 1773.21V1824H-568.5V1773.21H-573.5ZM-571 1826.5H-520.667V1821.5H-571V1826.5ZM-420 1826.5H-319.333V1821.5H-420V1826.5ZM-218.667 1826.5H-118V1821.5H-218.667V1826.5ZM-17.3334 1826.5H83.3333V1821.5H-17.3334V1826.5ZM184 1826.5H284.667V1821.5H184V1826.5ZM385.333 1826.5H486V1821.5H385.333V1826.5ZM586.667 1826.5H687.333V1821.5H586.667V1826.5ZM788 1826.5H888.667V1821.5H788V1826.5ZM989.333 1826.5H1090V1821.5H989.333V1826.5ZM1190.67 1826.5H1291.33V1821.5H1190.67V1826.5ZM1392 1826.5H1492.67V1821.5H1392V1826.5ZM1593.33 1826.5H1694V1821.5H1593.33V1826.5ZM1794.67 1826.5H1895.33V1821.5H1794.67V1826.5ZM1996 1826.5H2096.67V1821.5H1996V1826.5ZM2197.33 1826.5H2298V1821.5H2197.33V1826.5ZM2398.67 1826.5H2499.33V1821.5H2398.67V1826.5ZM2600 1826.5H2700.67V1821.5H2600V1826.5ZM2801.33 1826.5H2902V1821.5H2801.33V1826.5ZM3002.67 1826.5H3053V1821.5H3002.67V1826.5ZM3055.5 1824V1773.21H3050.5V1824H3055.5ZM3055.5 1671.63V1570.06H3050.5V1671.63H3055.5ZM3055.5 1468.48V1366.9H3050.5V1468.48H3055.5ZM3055.5 1265.33V1163.75H3050.5V1265.33H3055.5ZM3055.5 1062.17V960.596H3050.5V1062.17H3055.5ZM3055.5 859.019V757.442H3050.5V859.019H3055.5ZM3055.5 655.865V554.289H3050.5V655.865H3055.5ZM3055.5 452.712V351.135H3050.5V452.712H3055.5ZM3055.5 249.558V147.981H3050.5V249.558H3055.5ZM3055.5 46.404V-55.1729H3050.5V46.404H3055.5ZM3055.5 -156.75V-258.327H3050.5V-156.75H3055.5ZM3055.5 -359.904V-461.481H3050.5V-359.904H3055.5ZM3055.5 -563.057V-664.634H3050.5V-563.057H3055.5ZM3055.5 -766.211V-817H3050.5V-766.211H3055.5ZM3053 -819.5H3002.67V-814.5H3053V-819.5ZM2902 -819.5H2801.33V-814.5H2902V-819.5ZM2700.67 -819.5H2600V-814.5H2700.67V-819.5ZM2499.33 -819.5H2398.67V-814.5H2499.33V-819.5ZM2298 -819.5H2197.33V-814.5H2298V-819.5ZM2096.67 -819.5H1996V-814.5H2096.67V-819.5ZM1895.33 -819.5H1794.67V-814.5H1895.33V-819.5ZM1694 -819.5H1593.33V-814.5H1694V-819.5ZM1492.67 -819.5H1392V-814.5H1492.67V-819.5ZM1291.33 -819.5H1190.67V-814.5H1291.33V-819.5ZM1090 -819.5H989.334V-814.5H1090V-819.5ZM888.667 -819.5H788V-814.5H888.667V-819.5ZM687.333 -819.5H586.667V-814.5H687.333V-819.5ZM486 -819.5H385.333V-814.5H486V-819.5ZM284.666 -819.5H184V-814.5H284.666V-819.5ZM83.333 -819.5H-17.3337V-814.5H83.333V-819.5ZM-118 -819.5H-218.667V-814.5H-118V-819.5ZM-319.334 -819.5H-420.001V-814.5H-319.334V-819.5ZM-520.668 -819.5H-571V-814.5H-520.668V-819.5ZM-571 -817V-822H-576V-817H-571ZM3053 -817H3058V-822H3053V-817ZM3053 1824V1829H3058V1824H3053ZM-571 1824H-576V1829H-571V1824ZM-576 -817V-766.212H-566V-817H-576ZM-576 -664.635V-563.058H-566V-664.635H-576ZM-576 -461.481V-359.904H-566V-461.481H-576ZM-576 -258.327V-156.75H-566V-258.327H-576ZM-576 -55.1732V46.4037H-566V-55.1732H-576ZM-576 147.981V249.558H-566V147.981H-576ZM-576 351.135V452.711H-566V351.135H-576ZM-576 554.288V655.865H-566V554.288H-576ZM-576 757.442V859.019H-566V757.442H-576ZM-576 960.596V1062.17H-566V960.596H-576ZM-576 1163.75V1265.33H-566V1163.75H-576ZM-576 1366.9V1468.48H-566V1366.9H-576ZM-576 1570.06V1671.63H-566V1570.06H-576ZM-576 1773.21V1824H-566V1773.21H-576ZM-571 1829H-520.667V1819H-571V1829ZM-420 1829H-319.333V1819H-420V1829ZM-218.667 1829H-118V1819H-218.667V1829ZM-17.3334 1829H83.3333V1819H-17.3334V1829ZM184 1829H284.667V1819H184V1829ZM385.333 1829H486V1819H385.333V1829ZM586.667 1829H687.333V1819H586.667V1829ZM788 1829H888.667V1819H788V1829ZM989.333 1829H1090V1819H989.333V1829ZM1190.67 1829H1291.33V1819H1190.67V1829ZM1392 1829H1492.67V1819H1392V1829ZM1593.33 1829H1694V1819H1593.33V1829ZM1794.67 1829H1895.33V1819H1794.67V1829ZM1996 1829H2096.67V1819H1996V1829ZM2197.33 1829H2298V1819H2197.33V1829ZM2398.67 1829H2499.33V1819H2398.67V1829ZM2600 1829H2700.67V1819H2600V1829ZM2801.33 1829H2902V1819H2801.33V1829ZM3002.67 1829H3053V1819H3002.67V1829ZM3058 1824V1773.21H3048V1824H3058ZM3058 1671.63V1570.06H3048V1671.63H3058ZM3058 1468.48V1366.9H3048V1468.48H3058ZM3058 1265.33V1163.75H3048V1265.33H3058ZM3058 1062.17V960.596H3048V1062.17H3058ZM3058 859.019V757.442H3048V859.019H3058ZM3058 655.865V554.289H3048V655.865H3058ZM3058 452.712V351.135H3048V452.712H3058ZM3058 249.558V147.981H3048V249.558H3058ZM3058 46.404V-55.1729H3048V46.404H3058ZM3058 -156.75V-258.327H3048V-156.75H3058ZM3058 -359.904V-461.481H3048V-359.904H3058ZM3058 -563.057V-664.634H3048V-563.057H3058ZM3058 -766.211V-817H3048V-766.211H3058ZM3053 -822H3002.67V-812H3053V-822ZM2902 -822H2801.33V-812H2902V-822ZM2700.67 -822H2600V-812H2700.67V-822ZM2499.33 -822H2398.67V-812H2499.33V-822ZM2298 -822H2197.33V-812H2298V-822ZM2096.67 -822H1996V-812H2096.67V-822ZM1895.33 -822H1794.67V-812H1895.33V-822ZM1694 -822H1593.33V-812H1694V-822ZM1492.67 -822H1392V-812H1492.67V-822ZM1291.33 -822H1190.67V-812H1291.33V-822ZM1090 -822H989.334V-812H1090V-822ZM888.667 -822H788V-812H888.667V-822ZM687.333 -822H586.667V-812H687.333V-822ZM486 -822H385.333V-812H486V-822ZM284.666 -822H184V-812H284.666V-822ZM83.333 -822H-17.3337V-812H83.333V-822ZM-118 -822H-218.667V-812H-118V-822ZM-319.334 -822H-420.001V-812H-319.334V-822ZM-520.668 -822H-571V-812H-520.668V-822Z" fill="white"/>
<g id="Signup" clip-path="url(#clip0_0_1)">
<rect width="1440" height="1411" transform="translate(-343 -392)" fill="#1C1C1C"/>
<g id="BLUR" filter="url(#filter0_b_0_1)">
<rect width="1440" height="1753" transform="translate(-343 -563)" fill="url(#paint0_radial_0_1)"/>
</g>
<g id="Frame 1000001296">
<rect x="-246.5" y="-95.5" width="1248" height="873" rx="19.5" fill="#1E1E1E" fill-opacity="0.65"/>
<rect x="-246.5" y="-95.5" width="1248" height="873" rx="19.5" stroke="white"/>
<g id="Sign Up Form">
<g id="input/with button">
<rect x="-214.452" y="-10.5268" width="623.905" height="46.9048" rx="4.92857" stroke="white" stroke-width="1.09524"/>
<g id="devicon:google" clip-path="url(#clip1_0_1)">
<path id="Vector" d="M8.86104 1.7135C6.46307 2.54538 4.39506 4.12432 2.96077 6.21838C1.52649 8.31245 0.801526 10.8113 0.892371 13.3478C0.983217 15.8844 1.88508 18.3249 3.4655 20.311C5.04591 22.2971 7.22158 23.7241 9.67292 24.3823C11.6603 24.8951 13.7424 24.9176 15.7404 24.4479C17.5504 24.0413 19.2238 23.1717 20.5967 21.9241C22.0256 20.586 23.0627 18.8838 23.5967 17.0004C24.177 14.9523 24.2803 12.7984 23.8985 10.7041H12.7385V15.3335H19.2017C19.0725 16.0719 18.7957 16.7766 18.3878 17.4054C17.98 18.0343 17.4494 18.5745 16.8279 18.9935C16.0387 19.5156 15.149 19.8668 14.216 20.0248C13.2803 20.1987 12.3205 20.1987 11.3848 20.0248C10.4364 19.8287 9.53923 19.4372 8.75042 18.8754C7.4832 17.9784 6.53168 16.704 6.03167 15.2341C5.52319 13.7367 5.52319 12.1134 6.03167 10.616C6.38759 9.56641 6.97598 8.61076 7.75292 7.82038C8.64203 6.89928 9.76766 6.24087 11.0063 5.9174C12.245 5.59392 13.5488 5.61787 14.7748 5.98663C15.7325 6.28061 16.6083 6.79426 17.3323 7.48663C18.061 6.76163 18.7885 6.03475 19.5148 5.30601C19.8898 4.91413 20.2985 4.541 20.6679 4.13975C19.5627 3.11127 18.2654 2.31099 16.8504 1.78475C14.2736 0.849111 11.4541 0.823966 8.86104 1.7135Z" fill="white"/>
<path id="Vector_2" d="M8.8607 1.71442C11.4536 0.824273 14.2731 0.848755 16.8501 1.78379C18.2654 2.3136 19.562 3.11774 20.6657 4.15004C20.2907 4.55129 19.8951 4.92629 19.5126 5.31629C18.7851 6.04254 18.0582 6.76629 17.332 7.48754C16.6079 6.79517 15.7321 6.28153 14.7745 5.98754C13.5489 5.61749 12.2451 5.59216 11.0061 5.91431C9.76712 6.23646 8.64079 6.89366 7.7507 7.81379C6.97377 8.60417 6.38538 9.55982 6.02945 10.6094L2.14258 7.60004C3.53384 4.84109 5.94273 2.73071 8.8607 1.71442Z" fill="#E33629"/>
<path id="Vector_3" d="M1.1114 10.5826C1.32032 9.54718 1.66716 8.54449 2.14265 7.60132L6.02953 10.6182C5.52105 12.1156 5.52105 13.7389 6.02953 15.2363C4.73453 16.2363 3.4389 17.2413 2.14265 18.2513C0.952308 15.8819 0.589275 13.1823 1.1114 10.5826Z" fill="#F8BD00"/>
<path id="Vector_4" d="M12.7381 10.7048H23.8981C24.2799 12.7991 24.1766 14.953 23.5963 17.0011C23.0623 18.8845 22.0252 20.5867 20.5963 21.9248C19.3419 20.9461 18.0819 19.9748 16.8275 18.9961C17.4494 18.5766 17.9802 18.0359 18.3881 17.4063C18.796 16.7768 19.0726 16.0714 19.2013 15.3323H12.7381C12.7363 13.7911 12.7381 12.248 12.7381 10.7048Z" fill="#587DBD"/>
<path id="Vector_5" d="M2.14062 18.2511C3.43687 17.2511 4.7325 16.2461 6.0275 15.2361C6.52851 16.7065 7.48138 17.9809 8.75 18.8773C9.54127 19.4366 10.4404 19.8248 11.39 20.0173C12.3257 20.1913 13.2855 20.1913 14.2213 20.0173C15.1542 19.8594 16.0439 19.5081 16.8331 18.9861C18.0875 19.9648 19.3475 20.9361 20.6019 21.9148C19.2292 23.1631 17.5558 24.0334 15.7456 24.4405C13.7476 24.9102 11.6655 24.8876 9.67813 24.3748C8.10632 23.9552 6.63814 23.2153 5.36563 22.2017C4.01874 21.1324 2.91867 19.7848 2.14062 18.2511Z" fill="#319F43"/>
</g>
</g>
</g>
</g>
</g>
</g>
</g>
<defs>
<filter id="filter0_b_0_1" x="-523" y="-743" width="1800" height="2113" filterUnits="userSpaceOnUse" color-interpolation-filters="sRGB">
<feFlood flood-opacity="0" result="BackgroundImageFix"/>
<feGaussianBlur in="BackgroundImageFix" stdDeviation="90"/>
<feComposite in2="SourceAlpha" operator="in" result="effect1_backgroundBlur_0_1"/>
<feBlend mode="normal" in="SourceGraphic" in2="effect1_backgroundBlur_0_1" result="shape"/>
</filter>
<radialGradient id="paint0_radial_0_1" cx="0" cy="0" r="1" gradientUnits="userSpaceOnUse" gradientTransform="translate(12.9524 52.1553) rotate(49.6875) scale(2171.64 3428.62)">
<stop stop-color="#5A5555" stop-opacity="0.28"/>
<stop offset="1" stop-color="#383535" stop-opacity="0.02"/>
</radialGradient>
<clipPath id="clip0_0_1">
<rect width="1440" height="1411" fill="white" transform="translate(-343 -392)"/>
</clipPath>
<clipPath id="clip1_0_1">
<rect width="24" height="24" fill="white" transform="translate(0.5 0.925537)"/>
</clipPath>
</defs>
</svg>
